{"title":"The Huntsman Winters War 2016 Movies HDRip XviD AAC +Sample ☻rDX","uid":14947530,"size":738874615,"categoryP":"video","categoryS":"movies","magnet":"?xt=urn:btih:60145b3000ac6dfbaee7e1c5edddfc4bb8779333&amp;dn=The+Huntsman+Winters+War+2016+Movies+HDRip+XviD+AAC+%2BSample+%E2%98%BBrDX&amp;tr=udp%3A%2F%2Ftracker.leechers-paradise.org%3A6969&amp;tr=udp%3A%2F%2Fzer0day.ch%3A1337&amp;tr=udp%3A%2F%2Fopen.demonii.com%3A1337&amp;tr=udp%3A%2F%2Ftracker.coppersurfer.tk%3A6969&amp;tr=udp%3A%2F%2Fexodus.desync.com%3A6969","seeders":0,"leechers":1,"uploader":"basicssom","files":2,"time":1466064728,"description":"----------------------------------------------------------------\r\nThe Huntsman Winters War 2016 English Movies HDRip XviD AAC with Sample ☻rDX☻\r\n\r\nSCREEN SHOTS &amp; POSTER:\r\n  \nhttp://mobileshosting.com/2016/6/stock/index.htm  \nhttp://mobileshosting.com/2016/6/stock/1.html  \nhttp://mobileshosting.com/2016/6/stock/2.html  \nhttp://mobileshosting.com/2016/6/stock/3.html  \nhttp://mobileshosting.com/2016/6/stock/4.html  \nhttp://mobileshosting.com/2016/6/stock/5.html  \nhttp://mobileshosting.com/2016/6/stock/6.html  \nhttp://mobileshosting.com/2016/6/stock/7.html  \nhttp://mobileshosting.com/2016/6/stock/8.html  \nhttp://mobileshosting.com/2016/6/stock/9.html  \nhttp://mobileshosting.com/2016/6/stock/10.html\r\n\r\nFormat                                   : Matroska\r\nFormat version                           : Version 4 / Version 2\r\nFile size                                : 692 MiB\r\nDuration                                 : 1h 53mn\r\nOverall bit rate                         : 850 Kbps\r\nMovie name                               : The Huntsman Winters War 2016 English Movies HDRip XviD AAC ?rDX?\r\n\r\nVideo\r\nID                                       : 1\r\nFormat                                   : MPEG-4 Visual\r\nFormat profile                           : Advanced   \r\nFormat settings, BVOP                    : Yes\r\nFormat settings, QPel                    : No\r\nFormat settings, GMC                     : No warppoints\r\nFormat settings, Matrix                  : Default (H.263)\r\nCodec ID                                 : V_MS/VFW/FOURCC / XVID\r\nCodec ID/Hint                            : XviD\r\nDuration                                 : 1h 53mn\r\nBit rate                                 : 721 Kbps\r\nWidth                                    : 640 pixels\r\nHeight                                   : 272 pixels\r\nDisplay aspect ratio                     : 2.35:1\r\nFrame rate mode                          : Constant\r\nFrame rate                               : 23.976 fps\r\nColor space                              : YUV\r\nChroma subsampling                       : 4:2:0\r\nBit depth                                : 8 bits\r\nScan type                                : Progressive\r\nCompression mode                         : Lossy\r\nBits/(Pixel*Frame)                       : 0.173\r\nStream size                              : 587 MiB (85%)\r\nTitle                                    : ?rDX?\r\nWriting library                          : XviD 65\r\nDefault                                  : Yes\r\nForced                                   : No\r\n\r\nAudio\r\nID                                       : 2\r\nFormat                                   : MPEG Audio\r\nFormat version                           : Version 1\r\nFormat profile                           : Layer 3\r\nMode                                     : Joint stereo\r\nMode extension                           : MS Stereo\r\nCodec ID                                 : A_MPEG/L3\r\nCodec ID/Hint                            : MP3\r\nDuration                                 : 1h 53mn\r\nBit rate mode                            : Constant\r\nBit rate                                 : 112 Kbps\r\nChannel(s)                               : 2 channels\r\nSampling rate                            : 48.0 KHz\r\nCompression mode                         : Lossy\r\nStream size                              : 91.3 MiB (13%)\r\nTitle                                    : ?rDX?\r\nWriting library                          : LAME3.99r\r\nEncoding settings                        : -m j -V 4 -q 3 -lowpass 15.6 -b 112\r\nDefault                                  : Yes\r\nForced                                   : No\r\n\r\nIMDB \nhttp://www.imdb.com/title/tt2381991/","torrent":{"xt":"urn:btih:60145b3000ac6dfbaee7e1c5edddfc4bb8779333","amp;dn":"The+Huntsman+Winters+War+2016+Movies+HDRip+XviD+AAC+%2BSample+%E2%98%BBrDX","amp;tr":["udp%3A%2F%2Ftracker.leechers-paradise.org%3A6969","udp%3A%2F%2Fzer0day.ch%3A1337","udp%3A%2F%2Fopen.demonii.com%3A1337","udp%3A%2F%2Ftracker.coppersurfer.tk%3A6969","udp%3A%2F%2Fexodus.desync.com%3A6969"],"infoHash":"60145b3000ac6dfbaee7e1c5edddfc4bb8779333","infoHashBuffer":{"type":"Buffer","data":[96,20,91,48,0,172,109,251,174,231,225,197,237,221,252,75,184,119,147,51]},"announce":[],"urlList":[]}}